<mxfile host="app.diagrams.net" modified="2021-05-17T02:34:28.658Z" agent="5.0 (Windows NT 10.0; Win64; x64) AppleWebKit/537.36 (KHTML, like Gecko) Chrome/90.0.4430.212 Safari/537.36" etag="4ibksK8YJsVMVEQ2hiVm" version="14.4.4" type="github">
  <diagram id="prtHgNgQTEPvFCAcTncT" name="Page-1">
    <mxGraphModel dx="2557" dy="2149" grid="1" gridSize="10" guides="1" tooltips="1" connect="1" arrows="1" fold="1" page="1" pageScale="1" pageWidth="827" pageHeight="1169" math="0" shadow="0">
      <root>
        <mxCell id="0" />
        <mxCell id="1" parent="0" />
        <mxCell id="8arNH5vf3MiWIjYZIo-4-196" value="" style="rounded=0;whiteSpace=wrap;html=1;dashed=1;fillColor=#f5f5f5;strokeColor=#666666;fontColor=#333333;" parent="1" vertex="1">
          <mxGeometry x="-240" y="1030" width="900" height="530" as="geometry" />
        </mxCell>
        <mxCell id="c_6047Yb3-eXkrgklyP9-12" value="" style="rounded=0;whiteSpace=wrap;html=1;dashed=1;fillColor=#f5f5f5;strokeColor=#666666;fontColor=#333333;" vertex="1" parent="1">
          <mxGeometry x="-30" y="1320" width="620" height="230" as="geometry" />
        </mxCell>
        <mxCell id="8arNH5vf3MiWIjYZIo-4-195" value="" style="rounded=0;whiteSpace=wrap;html=1;dashed=1;fillColor=#f5f5f5;strokeColor=#666666;fontColor=#333333;" parent="1" vertex="1">
          <mxGeometry x="-240" y="640" width="1320" height="310" as="geometry" />
        </mxCell>
        <mxCell id="8arNH5vf3MiWIjYZIo-4-194" value="" style="rounded=0;whiteSpace=wrap;html=1;dashed=1;fillColor=#f5f5f5;strokeColor=#666666;fontColor=#333333;" parent="1" vertex="1">
          <mxGeometry x="-240" y="440" width="1800" height="150" as="geometry" />
        </mxCell>
        <mxCell id="8arNH5vf3MiWIjYZIo-4-193" value="" style="rounded=0;whiteSpace=wrap;html=1;dashed=1;fillColor=#f5f5f5;strokeColor=#666666;fontColor=#333333;" parent="1" vertex="1">
          <mxGeometry x="-240" y="100" width="1470" height="260" as="geometry" />
        </mxCell>
        <mxCell id="8arNH5vf3MiWIjYZIo-4-185" value="" style="rounded=0;whiteSpace=wrap;html=1;dashed=1;fillColor=#f5f5f5;strokeColor=#666666;fontColor=#333333;labelBorderColor=#000000;" parent="1" vertex="1">
          <mxGeometry x="-240" y="-280" width="1470" height="280" as="geometry" />
        </mxCell>
        <mxCell id="8arNH5vf3MiWIjYZIo-4-106" value="" style="rounded=1;whiteSpace=wrap;html=1;" parent="1" vertex="1">
          <mxGeometry x="-60" y="650" width="520" height="250" as="geometry" />
        </mxCell>
        <mxCell id="8arNH5vf3MiWIjYZIo-4-105" value="" style="rounded=0;whiteSpace=wrap;html=1;dashed=1;fillColor=#dae8fc;strokeColor=#6c8ebf;" parent="1" vertex="1">
          <mxGeometry x="190" y="670" width="210" height="180" as="geometry" />
        </mxCell>
        <mxCell id="8arNH5vf3MiWIjYZIo-4-15" value="&lt;b&gt;Market Server&lt;/b&gt;" style="aspect=fixed;perimeter=ellipsePerimeter;html=1;align=center;shadow=0;dashed=0;spacingTop=3;image;image=img/lib/active_directory/database_server.svg;" parent="1" vertex="1">
          <mxGeometry x="-210" y="452.66" width="81" height="98.78" as="geometry" />
        </mxCell>
        <mxCell id="8arNH5vf3MiWIjYZIo-4-18" value="&lt;b&gt;init_base / update_bcolz&lt;/b&gt;" style="html=1;outlineConnect=0;whiteSpace=wrap;fillColor=#99ffff;shape=mxgraph.archimate3.application;appType=proc;archiType=rounded;" parent="1" vertex="1">
          <mxGeometry x="210" y="680" width="170" height="40" as="geometry" />
        </mxCell>
        <mxCell id="8arNH5vf3MiWIjYZIo-4-21" value="" style="group" parent="1" vertex="1" connectable="0">
          <mxGeometry x="-20" y="670" width="150" height="90" as="geometry" />
        </mxCell>
        <mxCell id="8arNH5vf3MiWIjYZIo-4-19" value="" style="verticalLabelPosition=bottom;verticalAlign=top;html=1;shape=mxgraph.basic.rect;fillColor2=none;strokeWidth=1;size=20;indent=5;fillColor=#dae8fc;strokeColor=#6c8ebf;dashed=1;" parent="8arNH5vf3MiWIjYZIo-4-21" vertex="1">
          <mxGeometry width="150" height="90" as="geometry" />
        </mxCell>
        <mxCell id="8arNH5vf3MiWIjYZIo-4-17" value="&lt;b&gt;markt_to_redis&lt;/b&gt;" style="html=1;outlineConnect=0;whiteSpace=wrap;fillColor=#99ffff;shape=mxgraph.archimate3.application;appType=proc;archiType=rounded;" parent="8arNH5vf3MiWIjYZIo-4-21" vertex="1">
          <mxGeometry x="10" y="10" width="130" height="40" as="geometry" />
        </mxCell>
        <mxCell id="8arNH5vf3MiWIjYZIo-4-20" value="&lt;b&gt;jtpmarkettoredis&lt;/b&gt;" style="text;html=1;strokeColor=none;fillColor=none;align=center;verticalAlign=middle;whiteSpace=wrap;rounded=0;" parent="8arNH5vf3MiWIjYZIo-4-21" vertex="1">
          <mxGeometry x="55" y="60" width="40" height="20" as="geometry" />
        </mxCell>
        <mxCell id="8arNH5vf3MiWIjYZIo-4-22" value="" style="group" parent="1" vertex="1" connectable="0">
          <mxGeometry x="-20" y="-250" width="150" height="210" as="geometry" />
        </mxCell>
        <mxCell id="8arNH5vf3MiWIjYZIo-4-23" value="" style="verticalLabelPosition=bottom;verticalAlign=top;html=1;shape=mxgraph.basic.rect;fillColor2=none;strokeWidth=1;size=20;indent=5;fillColor=#dae8fc;strokeColor=#6c8ebf;dashed=1;" parent="8arNH5vf3MiWIjYZIo-4-22" vertex="1">
          <mxGeometry width="150" height="210" as="geometry" />
        </mxCell>
        <mxCell id="8arNH5vf3MiWIjYZIo-4-24" value="&lt;b&gt;markt_to_shm&lt;/b&gt;" style="html=1;outlineConnect=0;whiteSpace=wrap;fillColor=#99ffff;shape=mxgraph.archimate3.application;appType=proc;archiType=rounded;" parent="8arNH5vf3MiWIjYZIo-4-22" vertex="1">
          <mxGeometry x="10" y="10" width="130" height="40" as="geometry" />
        </mxCell>
        <mxCell id="8arNH5vf3MiWIjYZIo-4-25" value="&lt;b&gt;updatol&lt;/b&gt;" style="text;html=1;strokeColor=none;fillColor=none;align=center;verticalAlign=middle;whiteSpace=wrap;rounded=0;" parent="8arNH5vf3MiWIjYZIo-4-22" vertex="1">
          <mxGeometry x="55" y="180" width="40" height="20" as="geometry" />
        </mxCell>
        <mxCell id="8arNH5vf3MiWIjYZIo-4-14" value="SHM" style="shadow=0;dashed=0;html=1;strokeColor=none;fillColor=#4495D1;labelPosition=center;verticalLabelPosition=bottom;verticalAlign=top;align=center;outlineConnect=0;shape=mxgraph.veeam.local_disk;" parent="8arNH5vf3MiWIjYZIo-4-22" vertex="1">
          <mxGeometry x="46.400000000000006" y="90" width="57.2" height="56.8" as="geometry" />
        </mxCell>
        <mxCell id="8arNH5vf3MiWIjYZIo-4-60" value="" style="endArrow=classic;html=1;exitX=0.5;exitY=1;exitDx=0;exitDy=0;exitPerimeter=0;" parent="8arNH5vf3MiWIjYZIo-4-22" source="8arNH5vf3MiWIjYZIo-4-24" target="8arNH5vf3MiWIjYZIo-4-14" edge="1">
          <mxGeometry width="50" height="50" relative="1" as="geometry">
            <mxPoint x="120" y="50" as="sourcePoint" />
            <mxPoint x="75" y="80" as="targetPoint" />
          </mxGeometry>
        </mxCell>
        <mxCell id="8arNH5vf3MiWIjYZIo-4-26" value="" style="group" parent="1" vertex="1" connectable="0">
          <mxGeometry x="220" y="-250" width="150" height="90" as="geometry" />
        </mxCell>
        <mxCell id="8arNH5vf3MiWIjYZIo-4-27" value="" style="verticalLabelPosition=bottom;verticalAlign=top;html=1;shape=mxgraph.basic.rect;fillColor2=none;strokeWidth=1;size=20;indent=5;fillColor=#dae8fc;strokeColor=#6c8ebf;dashed=1;" parent="8arNH5vf3MiWIjYZIo-4-26" vertex="1">
          <mxGeometry width="150" height="90" as="geometry" />
        </mxCell>
        <mxCell id="8arNH5vf3MiWIjYZIo-4-28" value="&lt;b&gt;shm_to_ssdb&lt;/b&gt;" style="html=1;outlineConnect=0;whiteSpace=wrap;fillColor=#99ffff;shape=mxgraph.archimate3.application;appType=proc;archiType=rounded;" parent="8arNH5vf3MiWIjYZIo-4-26" vertex="1">
          <mxGeometry x="10" y="10" width="130" height="40" as="geometry" />
        </mxCell>
        <mxCell id="8arNH5vf3MiWIjYZIo-4-29" value="&lt;b&gt;shmtossdb&lt;/b&gt;" style="text;html=1;strokeColor=none;fillColor=none;align=center;verticalAlign=middle;whiteSpace=wrap;rounded=0;" parent="8arNH5vf3MiWIjYZIo-4-26" vertex="1">
          <mxGeometry x="55" y="60" width="40" height="20" as="geometry" />
        </mxCell>
        <mxCell id="8arNH5vf3MiWIjYZIo-4-32" value="&lt;b&gt;rtdata&lt;/b&gt;" style="html=1;outlineConnect=0;whiteSpace=wrap;fillColor=#99ffff;shape=mxgraph.archimate3.application;appType=proc;archiType=rounded;" parent="1" vertex="1">
          <mxGeometry x="380" y="-80" width="130" height="40" as="geometry" />
        </mxCell>
        <mxCell id="8arNH5vf3MiWIjYZIo-4-10" value="Finance / Sup / Bond&amp;nbsp;" style="outlineConnect=0;fontColor=#232F3E;gradientColor=none;fillColor=#3334B9;strokeColor=none;dashed=0;verticalLabelPosition=bottom;verticalAlign=top;align=center;html=1;fontSize=12;fontStyle=0;aspect=fixed;pointerEvents=1;shape=mxgraph.aws4.rds_mysql_instance;" parent="1" vertex="1">
          <mxGeometry x="990" y="200" width="100" height="100" as="geometry" />
        </mxCell>
        <mxCell id="8arNH5vf3MiWIjYZIo-4-13" value="Tick Bcolz" style="shape=image;html=1;verticalAlign=top;verticalLabelPosition=bottom;labelBackgroundColor=#ffffff;imageAspect=0;aspect=fixed;image=https://cdn2.iconfinder.com/data/icons/stilllife/48x48/filesystems/gnome-fs-nfs.png" parent="1" vertex="1">
          <mxGeometry x="770" y="200" width="100" height="100" as="geometry" />
        </mxCell>
        <mxCell id="8arNH5vf3MiWIjYZIo-4-45" value="" style="group" parent="1" vertex="1" connectable="0">
          <mxGeometry x="520" y="130" width="160" height="190" as="geometry" />
        </mxCell>
        <mxCell id="8arNH5vf3MiWIjYZIo-4-38" value="" style="rounded=0;whiteSpace=wrap;html=1;dashed=1;fillColor=#d5e8d4;strokeColor=#82b366;" parent="8arNH5vf3MiWIjYZIo-4-45" vertex="1">
          <mxGeometry x="10" width="150" height="190" as="geometry" />
        </mxCell>
        <mxCell id="8arNH5vf3MiWIjYZIo-4-34" value="dt-hs-sdb00" style="shape=datastore;whiteSpace=wrap;html=1;" parent="8arNH5vf3MiWIjYZIo-4-45" vertex="1">
          <mxGeometry x="40" y="119" width="90" height="70" as="geometry" />
        </mxCell>
        <mxCell id="8arNH5vf3MiWIjYZIo-4-35" value="dt-hs-mdb00" style="shape=datastore;whiteSpace=wrap;html=1;" parent="8arNH5vf3MiWIjYZIo-4-45" vertex="1">
          <mxGeometry x="40" y="30" width="90" height="60" as="geometry" />
        </mxCell>
        <mxCell id="8arNH5vf3MiWIjYZIo-4-39" value="&lt;b&gt;History SSDB&lt;/b&gt;" style="text;html=1;strokeColor=none;fillColor=none;align=center;verticalAlign=middle;whiteSpace=wrap;rounded=0;dashed=1;" parent="8arNH5vf3MiWIjYZIo-4-45" vertex="1">
          <mxGeometry y="2" width="100" height="20" as="geometry" />
        </mxCell>
        <mxCell id="8arNH5vf3MiWIjYZIo-4-43" value="" style="endArrow=classic;html=1;entryX=0.5;entryY=0;entryDx=0;entryDy=0;" parent="8arNH5vf3MiWIjYZIo-4-45" source="8arNH5vf3MiWIjYZIo-4-35" target="8arNH5vf3MiWIjYZIo-4-34" edge="1">
          <mxGeometry width="50" height="50" relative="1" as="geometry">
            <mxPoint x="-130" y="190" as="sourcePoint" />
            <mxPoint x="91" y="130" as="targetPoint" />
          </mxGeometry>
        </mxCell>
        <mxCell id="8arNH5vf3MiWIjYZIo-4-46" value="" style="group" parent="1" vertex="1" connectable="0">
          <mxGeometry x="160" y="130" width="300" height="190" as="geometry" />
        </mxCell>
        <mxCell id="8arNH5vf3MiWIjYZIo-4-36" value="" style="rounded=0;whiteSpace=wrap;html=1;dashed=1;fillColor=#d5e8d4;strokeColor=#82b366;" parent="8arNH5vf3MiWIjYZIo-4-46" vertex="1">
          <mxGeometry width="300" height="190" as="geometry" />
        </mxCell>
        <mxCell id="8arNH5vf3MiWIjYZIo-4-3" value="dt-lv-sdb01" style="shape=datastore;whiteSpace=wrap;html=1;" parent="8arNH5vf3MiWIjYZIo-4-46" vertex="1">
          <mxGeometry x="30" y="125" width="80" height="60" as="geometry" />
        </mxCell>
        <mxCell id="8arNH5vf3MiWIjYZIo-4-7" value="dt-lv-mdb00" style="shape=datastore;whiteSpace=wrap;html=1;" parent="8arNH5vf3MiWIjYZIo-4-46" vertex="1">
          <mxGeometry x="150" y="125" width="80" height="60" as="geometry" />
        </mxCell>
        <mxCell id="8arNH5vf3MiWIjYZIo-4-33" value="dt-lv-mdb01" style="shape=datastore;whiteSpace=wrap;html=1;" parent="8arNH5vf3MiWIjYZIo-4-46" vertex="1">
          <mxGeometry x="95" y="30" width="75" height="60" as="geometry" />
        </mxCell>
        <mxCell id="8arNH5vf3MiWIjYZIo-4-37" value="&lt;b&gt;RealTime SSDB&lt;/b&gt;" style="text;html=1;strokeColor=none;fillColor=none;align=center;verticalAlign=middle;whiteSpace=wrap;rounded=0;dashed=1;" parent="8arNH5vf3MiWIjYZIo-4-46" vertex="1">
          <mxGeometry y="2" width="100" height="18" as="geometry" />
        </mxCell>
        <mxCell id="8arNH5vf3MiWIjYZIo-4-41" value="" style="endArrow=classic;html=1;entryX=0.5;entryY=0;entryDx=0;entryDy=0;" parent="8arNH5vf3MiWIjYZIo-4-46" source="8arNH5vf3MiWIjYZIo-4-33" target="8arNH5vf3MiWIjYZIo-4-3" edge="1">
          <mxGeometry width="50" height="50" relative="1" as="geometry">
            <mxPoint x="140" y="190" as="sourcePoint" />
            <mxPoint x="190" y="140" as="targetPoint" />
          </mxGeometry>
        </mxCell>
        <mxCell id="8arNH5vf3MiWIjYZIo-4-42" value="" style="endArrow=classic;html=1;" parent="8arNH5vf3MiWIjYZIo-4-46" source="8arNH5vf3MiWIjYZIo-4-33" edge="1">
          <mxGeometry width="50" height="50" relative="1" as="geometry">
            <mxPoint x="140" y="190" as="sourcePoint" />
            <mxPoint x="190" y="130" as="targetPoint" />
          </mxGeometry>
        </mxCell>
        <mxCell id="8arNH5vf3MiWIjYZIo-4-54" value="rtdata" style="edgeLabel;html=1;align=center;verticalAlign=middle;resizable=0;points=[];" parent="8arNH5vf3MiWIjYZIo-4-42" vertex="1" connectable="0">
          <mxGeometry x="-0.3214" y="-1" relative="1" as="geometry">
            <mxPoint as="offset" />
          </mxGeometry>
        </mxCell>
        <mxCell id="8arNH5vf3MiWIjYZIo-4-177" value="dt-lv-sdb02" style="shape=datastore;whiteSpace=wrap;html=1;" parent="8arNH5vf3MiWIjYZIo-4-46" vertex="1">
          <mxGeometry x="210" y="30" width="75" height="60" as="geometry" />
        </mxCell>
        <mxCell id="8arNH5vf3MiWIjYZIo-4-52" value="" style="group" parent="1" vertex="1" connectable="0">
          <mxGeometry x="-20" y="180" width="100" height="140" as="geometry" />
        </mxCell>
        <mxCell id="8arNH5vf3MiWIjYZIo-4-51" value="" style="group" parent="8arNH5vf3MiWIjYZIo-4-52" vertex="1" connectable="0">
          <mxGeometry width="100" height="140" as="geometry" />
        </mxCell>
        <mxCell id="8arNH5vf3MiWIjYZIo-4-47" value="" style="rounded=0;whiteSpace=wrap;html=1;dashed=1;fillColor=#d5e8d4;strokeColor=#82b366;" parent="8arNH5vf3MiWIjYZIo-4-51" vertex="1">
          <mxGeometry width="100" height="140" as="geometry" />
        </mxCell>
        <mxCell id="8arNH5vf3MiWIjYZIo-4-6" value="Redis" style="aspect=fixed;html=1;points=[];align=center;image;fontSize=12;image=img/lib/mscae/Azure_Cache_for_Redis.svg;" parent="8arNH5vf3MiWIjYZIo-4-51" vertex="1">
          <mxGeometry x="25" y="64.5" width="50" height="50" as="geometry" />
        </mxCell>
        <mxCell id="8arNH5vf3MiWIjYZIo-4-48" value="&lt;b&gt;RealTime Tick&lt;/b&gt;" style="text;html=1;strokeColor=none;fillColor=none;align=center;verticalAlign=middle;whiteSpace=wrap;rounded=0;dashed=1;" parent="8arNH5vf3MiWIjYZIo-4-51" vertex="1">
          <mxGeometry x="7.5" y="14.5" width="85" height="20" as="geometry" />
        </mxCell>
        <mxCell id="8arNH5vf3MiWIjYZIo-4-55" value="&lt;b&gt;Nginx Server&lt;/b&gt;" style="aspect=fixed;pointerEvents=1;shadow=0;dashed=0;html=1;strokeColor=none;labelPosition=center;verticalLabelPosition=bottom;verticalAlign=top;align=center;fillColor=#00188D;shape=mxgraph.azure.server" parent="1" vertex="1">
          <mxGeometry x="230" y="480" width="147" height="44.1" as="geometry" />
        </mxCell>
        <mxCell id="8arNH5vf3MiWIjYZIo-4-58" value="" style="endArrow=classic;html=1;exitX=0.479;exitY=0.965;exitDx=0;exitDy=0;exitPerimeter=0;entryX=0.5;entryY=0;entryDx=0;entryDy=0;" parent="1" source="8arNH5vf3MiWIjYZIo-4-27" target="8arNH5vf3MiWIjYZIo-4-33" edge="1">
          <mxGeometry width="50" height="50" relative="1" as="geometry">
            <mxPoint x="250" y="140" as="sourcePoint" />
            <mxPoint x="300" y="90" as="targetPoint" />
          </mxGeometry>
        </mxCell>
        <mxCell id="8arNH5vf3MiWIjYZIo-4-179" value="jqdata&lt;br&gt;server04" style="edgeLabel;html=1;align=center;verticalAlign=middle;resizable=0;points=[];" parent="8arNH5vf3MiWIjYZIo-4-58" vertex="1" connectable="0">
          <mxGeometry x="-0.1185" y="-3" relative="1" as="geometry">
            <mxPoint y="44.29" as="offset" />
          </mxGeometry>
        </mxCell>
        <mxCell id="8arNH5vf3MiWIjYZIo-4-59" value="" style="endArrow=classic;html=1;entryX=0.002;entryY=0.463;entryDx=0;entryDy=0;entryPerimeter=0;" parent="1" source="8arNH5vf3MiWIjYZIo-4-14" target="8arNH5vf3MiWIjYZIo-4-27" edge="1">
          <mxGeometry width="50" height="50" relative="1" as="geometry">
            <mxPoint x="100" y="-30" as="sourcePoint" />
            <mxPoint x="70" y="10" as="targetPoint" />
          </mxGeometry>
        </mxCell>
        <mxCell id="8arNH5vf3MiWIjYZIo-4-64" value="" style="endArrow=classic;html=1;exitX=0.85;exitY=0.05;exitDx=0;exitDy=0;exitPerimeter=0;" parent="1" source="8arNH5vf3MiWIjYZIo-4-33" target="8arNH5vf3MiWIjYZIo-4-32" edge="1">
          <mxGeometry width="50" height="50" relative="1" as="geometry">
            <mxPoint x="390" y="160" as="sourcePoint" />
            <mxPoint x="440" y="110" as="targetPoint" />
          </mxGeometry>
        </mxCell>
        <mxCell id="8arNH5vf3MiWIjYZIo-4-65" value="实时导入天行情" style="endArrow=classic;html=1;exitX=0.75;exitY=1;exitDx=0;exitDy=0;exitPerimeter=0;entryX=0.649;entryY=-0.093;entryDx=0;entryDy=0;entryPerimeter=0;" parent="1" source="8arNH5vf3MiWIjYZIo-4-32" target="8arNH5vf3MiWIjYZIo-4-39" edge="1">
          <mxGeometry x="0.1722" y="-1" width="50" height="50" relative="1" as="geometry">
            <mxPoint x="500" y="90" as="sourcePoint" />
            <mxPoint x="583" y="127" as="targetPoint" />
            <mxPoint y="-1" as="offset" />
          </mxGeometry>
        </mxCell>
        <mxCell id="8arNH5vf3MiWIjYZIo-4-68" value="" style="group" parent="1" vertex="1" connectable="0">
          <mxGeometry x="690" y="-250" width="170" height="190" as="geometry" />
        </mxCell>
        <mxCell id="8arNH5vf3MiWIjYZIo-4-67" value="" style="rounded=0;whiteSpace=wrap;html=1;dashed=1;fillColor=#dae8fc;strokeColor=#6c8ebf;" parent="8arNH5vf3MiWIjYZIo-4-68" vertex="1">
          <mxGeometry width="170" height="190" as="geometry" />
        </mxCell>
        <mxCell id="8arNH5vf3MiWIjYZIo-4-30" value="&lt;b&gt;crawl_data&lt;/b&gt;" style="html=1;outlineConnect=0;whiteSpace=wrap;fillColor=#99ffff;shape=mxgraph.archimate3.application;appType=proc;archiType=rounded;" parent="8arNH5vf3MiWIjYZIo-4-68" vertex="1">
          <mxGeometry x="20" y="10" width="130" height="40" as="geometry" />
        </mxCell>
        <mxCell id="8arNH5vf3MiWIjYZIo-4-12" value="Snap(level1)" style="shape=image;html=1;verticalAlign=top;verticalLabelPosition=bottom;labelBackgroundColor=#ffffff;imageAspect=0;aspect=fixed;image=https://cdn3.iconfinder.com/data/icons/dompicon-glyph-file-format-2/256/file-csv-format-type-128.png" parent="8arNH5vf3MiWIjYZIo-4-68" vertex="1">
          <mxGeometry x="50" y="80" width="70" height="70" as="geometry" />
        </mxCell>
        <mxCell id="8arNH5vf3MiWIjYZIo-4-69" value="" style="endArrow=classic;html=1;exitX=0.5;exitY=1;exitDx=0;exitDy=0;exitPerimeter=0;" parent="8arNH5vf3MiWIjYZIo-4-68" source="8arNH5vf3MiWIjYZIo-4-30" target="8arNH5vf3MiWIjYZIo-4-12" edge="1">
          <mxGeometry width="50" height="50" relative="1" as="geometry">
            <mxPoint x="85" y="60" as="sourcePoint" />
            <mxPoint x="130" y="50" as="targetPoint" />
          </mxGeometry>
        </mxCell>
        <mxCell id="8arNH5vf3MiWIjYZIo-4-71" value="分钟数据从 csv 数据合成" style="endArrow=classic;html=1;" parent="1" edge="1">
          <mxGeometry x="-0.0566" y="-8" width="50" height="50" relative="1" as="geometry">
            <mxPoint x="768" y="-70" as="sourcePoint" />
            <mxPoint x="638" y="130" as="targetPoint" />
            <mxPoint as="offset" />
          </mxGeometry>
        </mxCell>
        <mxCell id="8arNH5vf3MiWIjYZIo-4-72" value="" style="endArrow=classic;html=1;entryX=0.475;entryY=0.1;entryDx=0;entryDy=0;entryPerimeter=0;" parent="1" target="8arNH5vf3MiWIjYZIo-4-13" edge="1">
          <mxGeometry width="50" height="50" relative="1" as="geometry">
            <mxPoint x="779" y="-70" as="sourcePoint" />
            <mxPoint x="800" y="154.5" as="targetPoint" />
          </mxGeometry>
        </mxCell>
        <mxCell id="8arNH5vf3MiWIjYZIo-4-73" value="写入历史 Tick 数据" style="edgeLabel;html=1;align=center;verticalAlign=middle;resizable=0;points=[];" parent="8arNH5vf3MiWIjYZIo-4-72" vertex="1" connectable="0">
          <mxGeometry x="-0.4858" y="-1" relative="1" as="geometry">
            <mxPoint x="22.07" y="127.69" as="offset" />
          </mxGeometry>
        </mxCell>
        <mxCell id="8arNH5vf3MiWIjYZIo-4-85" value="" style="endArrow=classic;html=1;exitX=0.5;exitY=1;exitDx=0;exitDy=0;exitPerimeter=0;" parent="1" source="8arNH5vf3MiWIjYZIo-4-228" target="8arNH5vf3MiWIjYZIo-4-10" edge="1">
          <mxGeometry width="50" height="50" relative="1" as="geometry">
            <mxPoint x="1040" y="-60" as="sourcePoint" />
            <mxPoint x="990" y="190" as="targetPoint" />
          </mxGeometry>
        </mxCell>
        <mxCell id="8arNH5vf3MiWIjYZIo-4-86" value="" style="endArrow=classic;html=1;entryX=0.75;entryY=0;entryDx=0;entryDy=0;exitX=0.5;exitY=1;exitDx=0;exitDy=0;exitPerimeter=0;" parent="1" source="8arNH5vf3MiWIjYZIo-4-228" target="8arNH5vf3MiWIjYZIo-4-13" edge="1">
          <mxGeometry width="50" height="50" relative="1" as="geometry">
            <mxPoint x="1040.06" y="-70" as="sourcePoint" />
            <mxPoint x="950" y="190" as="targetPoint" />
          </mxGeometry>
        </mxCell>
        <mxCell id="8arNH5vf3MiWIjYZIo-4-89" value="" style="endArrow=classic;html=1;entryX=1;entryY=0.25;entryDx=0;entryDy=0;exitX=0.5;exitY=1;exitDx=0;exitDy=0;exitPerimeter=0;" parent="1" source="8arNH5vf3MiWIjYZIo-4-228" target="8arNH5vf3MiWIjYZIo-4-38" edge="1">
          <mxGeometry width="50" height="50" relative="1" as="geometry">
            <mxPoint x="1040" y="-60" as="sourcePoint" />
            <mxPoint x="673.6" y="214.50000000000045" as="targetPoint" />
            <Array as="points" />
          </mxGeometry>
        </mxCell>
        <mxCell id="8arNH5vf3MiWIjYZIo-4-90" value="写入期权日行情" style="edgeLabel;html=1;align=center;verticalAlign=middle;resizable=0;points=[];" parent="8arNH5vf3MiWIjYZIo-4-89" vertex="1" connectable="0">
          <mxGeometry x="-0.2171" y="-2" relative="1" as="geometry">
            <mxPoint x="109.14" y="-106.75" as="offset" />
          </mxGeometry>
        </mxCell>
        <mxCell id="8arNH5vf3MiWIjYZIo-4-93" value="" style="group" parent="1" vertex="1" connectable="0">
          <mxGeometry x="10" y="1040" width="380" height="233.4" as="geometry" />
        </mxCell>
        <mxCell id="8arNH5vf3MiWIjYZIo-4-94" value="" style="verticalLabelPosition=bottom;verticalAlign=top;html=1;shape=mxgraph.basic.rect;fillColor2=none;strokeWidth=1;size=20;indent=5;fillColor=#dae8fc;strokeColor=#6c8ebf;dashed=1;" parent="8arNH5vf3MiWIjYZIo-4-93" vertex="1">
          <mxGeometry y="3.4" width="380" height="230" as="geometry" />
        </mxCell>
        <mxCell id="8arNH5vf3MiWIjYZIo-4-95" value="&lt;b&gt;markt_to_shm&lt;/b&gt;" style="html=1;outlineConnect=0;whiteSpace=wrap;fillColor=#99ffff;shape=mxgraph.archimate3.application;appType=proc;archiType=rounded;" parent="8arNH5vf3MiWIjYZIo-4-93" vertex="1">
          <mxGeometry x="10" y="10" width="130" height="40" as="geometry" />
        </mxCell>
        <mxCell id="8arNH5vf3MiWIjYZIo-4-96" value="&lt;b&gt;updatol&lt;/b&gt;" style="text;html=1;strokeColor=none;fillColor=none;align=center;verticalAlign=middle;whiteSpace=wrap;rounded=0;" parent="8arNH5vf3MiWIjYZIo-4-93" vertex="1">
          <mxGeometry x="169" y="208" width="40" height="20" as="geometry" />
        </mxCell>
        <mxCell id="8arNH5vf3MiWIjYZIo-4-97" value="SHM" style="shadow=0;dashed=0;html=1;strokeColor=none;fillColor=#4495D1;labelPosition=center;verticalLabelPosition=bottom;verticalAlign=top;align=center;outlineConnect=0;shape=mxgraph.veeam.local_disk;" parent="8arNH5vf3MiWIjYZIo-4-93" vertex="1">
          <mxGeometry x="46.40000000000001" y="90" width="57.20000000000001" height="56.8" as="geometry" />
        </mxCell>
        <mxCell id="8arNH5vf3MiWIjYZIo-4-98" value="" style="endArrow=classic;html=1;exitX=0.5;exitY=1;exitDx=0;exitDy=0;exitPerimeter=0;" parent="8arNH5vf3MiWIjYZIo-4-93" source="8arNH5vf3MiWIjYZIo-4-95" target="8arNH5vf3MiWIjYZIo-4-97" edge="1">
          <mxGeometry width="50" height="50" relative="1" as="geometry">
            <mxPoint x="120" y="50" as="sourcePoint" />
            <mxPoint x="75" y="80" as="targetPoint" />
          </mxGeometry>
        </mxCell>
        <mxCell id="8arNH5vf3MiWIjYZIo-4-113" value="Seqlite / Pickle / Bcolz" style="shadow=0;dashed=0;html=1;strokeColor=none;fillColor=#4495D1;labelPosition=center;verticalLabelPosition=bottom;verticalAlign=top;align=center;outlineConnect=0;shape=mxgraph.veeam.local_disk;" parent="8arNH5vf3MiWIjYZIo-4-93" vertex="1">
          <mxGeometry x="280" y="79" width="57.20000000000001" height="60" as="geometry" />
        </mxCell>
        <mxCell id="8arNH5vf3MiWIjYZIo-4-214" value="&lt;b&gt;update_shm&lt;/b&gt;" style="html=1;outlineConnect=0;whiteSpace=wrap;fillColor=#99ffff;shape=mxgraph.archimate3.application;appType=proc;archiType=rounded;" parent="8arNH5vf3MiWIjYZIo-4-93" vertex="1">
          <mxGeometry x="155" y="10" width="130" height="40" as="geometry" />
        </mxCell>
        <mxCell id="8arNH5vf3MiWIjYZIo-4-217" value="" style="endArrow=classic;html=1;entryX=0.654;entryY=1;entryDx=0;entryDy=0;entryPerimeter=0;" parent="8arNH5vf3MiWIjYZIo-4-93" source="8arNH5vf3MiWIjYZIo-4-113" target="8arNH5vf3MiWIjYZIo-4-214" edge="1">
          <mxGeometry width="50" height="50" relative="1" as="geometry">
            <mxPoint x="90" y="140" as="sourcePoint" />
            <mxPoint x="140" y="90" as="targetPoint" />
          </mxGeometry>
        </mxCell>
        <mxCell id="8arNH5vf3MiWIjYZIo-4-218" value="" style="endArrow=classic;html=1;exitX=0.25;exitY=1;exitDx=0;exitDy=0;exitPerimeter=0;" parent="8arNH5vf3MiWIjYZIo-4-93" source="8arNH5vf3MiWIjYZIo-4-214" target="8arNH5vf3MiWIjYZIo-4-97" edge="1">
          <mxGeometry width="50" height="50" relative="1" as="geometry">
            <mxPoint x="190" y="100" as="sourcePoint" />
            <mxPoint x="140" y="150" as="targetPoint" />
          </mxGeometry>
        </mxCell>
        <mxCell id="8arNH5vf3MiWIjYZIo-4-99" value="Seqlite / Pickle" style="shadow=0;dashed=0;html=1;strokeColor=none;fillColor=#4495D1;labelPosition=center;verticalLabelPosition=bottom;verticalAlign=top;align=center;outlineConnect=0;shape=mxgraph.veeam.local_disk;" parent="1" vertex="1">
          <mxGeometry x="210" y="760" width="57.2" height="56.8" as="geometry" />
        </mxCell>
        <mxCell id="8arNH5vf3MiWIjYZIo-4-100" value="Bcolz" style="shadow=0;dashed=0;html=1;strokeColor=none;fillColor=#4495D1;labelPosition=center;verticalLabelPosition=bottom;verticalAlign=top;align=center;outlineConnect=0;shape=mxgraph.veeam.local_disk;" parent="1" vertex="1">
          <mxGeometry x="332.8" y="760" width="57.2" height="56.8" as="geometry" />
        </mxCell>
        <mxCell id="8arNH5vf3MiWIjYZIo-4-103" value="" style="endArrow=classic;html=1;exitX=0.5;exitY=1;exitDx=0;exitDy=0;exitPerimeter=0;" parent="1" source="8arNH5vf3MiWIjYZIo-4-18" target="8arNH5vf3MiWIjYZIo-4-99" edge="1">
          <mxGeometry width="50" height="50" relative="1" as="geometry">
            <mxPoint x="280" y="730" as="sourcePoint" />
            <mxPoint x="230" y="750" as="targetPoint" />
          </mxGeometry>
        </mxCell>
        <mxCell id="8arNH5vf3MiWIjYZIo-4-104" value="" style="endArrow=classic;html=1;exitX=0.5;exitY=1;exitDx=0;exitDy=0;exitPerimeter=0;" parent="1" source="8arNH5vf3MiWIjYZIo-4-18" target="8arNH5vf3MiWIjYZIo-4-100" edge="1">
          <mxGeometry width="50" height="50" relative="1" as="geometry">
            <mxPoint x="280" y="720" as="sourcePoint" />
            <mxPoint x="310" y="780" as="targetPoint" />
          </mxGeometry>
        </mxCell>
        <mxCell id="8arNH5vf3MiWIjYZIo-4-107" value="&lt;b&gt;&lt;font style=&quot;font-size: 14px&quot;&gt;tr-data00&lt;/font&gt;&lt;/b&gt;" style="text;html=1;strokeColor=none;fillColor=none;align=center;verticalAlign=middle;whiteSpace=wrap;rounded=0;dashed=1;" parent="1" vertex="1">
          <mxGeometry x="177" y="870" width="70" height="20" as="geometry" />
        </mxCell>
        <mxCell id="8arNH5vf3MiWIjYZIo-4-108" value="" style="endArrow=classic;html=1;exitX=0.384;exitY=0.037;exitDx=0;exitDy=0;exitPerimeter=0;entryX=0.595;entryY=1.02;entryDx=0;entryDy=0;entryPerimeter=0;" parent="1" source="8arNH5vf3MiWIjYZIo-4-19" target="8arNH5vf3MiWIjYZIo-4-47" edge="1">
          <mxGeometry width="50" height="50" relative="1" as="geometry">
            <mxPoint x="230" y="520" as="sourcePoint" />
            <mxPoint x="280" y="470" as="targetPoint" />
          </mxGeometry>
        </mxCell>
        <mxCell id="8arNH5vf3MiWIjYZIo-4-109" value="" style="rounded=1;whiteSpace=wrap;html=1;" parent="1" vertex="1">
          <mxGeometry x="540" y="650" width="210" height="250" as="geometry" />
        </mxCell>
        <mxCell id="8arNH5vf3MiWIjYZIo-4-110" value="Seqlite / Pickle / Bcolz" style="shadow=0;dashed=0;html=1;strokeColor=none;fillColor=#4495D1;labelPosition=center;verticalLabelPosition=bottom;verticalAlign=top;align=center;outlineConnect=0;shape=mxgraph.veeam.local_disk;" parent="1" vertex="1">
          <mxGeometry x="616.4" y="745" width="57.2" height="60" as="geometry" />
        </mxCell>
        <mxCell id="8arNH5vf3MiWIjYZIo-4-112" value="" style="shape=mxgraph.arrows.arrow_right;html=1;verticalLabelPosition=bottom;verticalAlign=top;strokeWidth=2;strokeColor=#000000;dashed=1;" parent="1" vertex="1">
          <mxGeometry x="470" y="760" width="60" height="40" as="geometry" />
        </mxCell>
        <mxCell id="8arNH5vf3MiWIjYZIo-4-115" value="Tick Bcolz" style="shape=image;html=1;verticalAlign=top;verticalLabelPosition=bottom;labelBackgroundColor=#ffffff;imageAspect=0;aspect=fixed;image=https://cdn2.iconfinder.com/data/icons/stilllife/48x48/filesystems/gnome-fs-nfs.png" parent="1" vertex="1">
          <mxGeometry x="430" y="1110" width="80" height="80" as="geometry" />
        </mxCell>
        <mxCell id="8arNH5vf3MiWIjYZIo-4-117" value="&lt;b&gt;&lt;font style=&quot;font-size: 14px&quot;&gt;tr-data01&lt;/font&gt;&lt;/b&gt;" style="text;html=1;strokeColor=none;fillColor=none;align=center;verticalAlign=middle;whiteSpace=wrap;rounded=0;dashed=1;" parent="1" vertex="1">
          <mxGeometry x="610" y="870" width="70" height="20" as="geometry" />
        </mxCell>
        <mxCell id="8arNH5vf3MiWIjYZIo-4-119" value="" style="rounded=1;whiteSpace=wrap;html=1;" parent="1" vertex="1">
          <mxGeometry x="840" y="650" width="210" height="250" as="geometry" />
        </mxCell>
        <mxCell id="8arNH5vf3MiWIjYZIo-4-120" value="Seqlite / Pickle / Bcolz" style="shadow=0;dashed=0;html=1;strokeColor=none;fillColor=#4495D1;labelPosition=center;verticalLabelPosition=bottom;verticalAlign=top;align=center;outlineConnect=0;shape=mxgraph.veeam.local_disk;" parent="1" vertex="1">
          <mxGeometry x="924.5999999999999" y="756.8" width="57.2" height="60" as="geometry" />
        </mxCell>
        <mxCell id="8arNH5vf3MiWIjYZIo-4-121" value="SSDB" style="shape=datastore;whiteSpace=wrap;html=1;" parent="1" vertex="1">
          <mxGeometry x="860" y="665" width="70" height="80" as="geometry" />
        </mxCell>
        <mxCell id="8arNH5vf3MiWIjYZIo-4-122" value="Finance" style="outlineConnect=0;fontColor=#232F3E;gradientColor=none;fillColor=#3334B9;strokeColor=none;dashed=0;verticalLabelPosition=bottom;verticalAlign=top;align=center;html=1;fontSize=12;fontStyle=0;aspect=fixed;pointerEvents=1;shape=mxgraph.aws4.rds_mysql_instance;" parent="1" vertex="1">
          <mxGeometry x="970" y="665" width="60" height="60" as="geometry" />
        </mxCell>
        <mxCell id="8arNH5vf3MiWIjYZIo-4-126" value="" style="endArrow=classic;html=1;" parent="1" target="8arNH5vf3MiWIjYZIo-4-120" edge="1">
          <mxGeometry width="50" height="50" relative="1" as="geometry">
            <mxPoint x="680" y="787" as="sourcePoint" />
            <mxPoint x="780" y="810" as="targetPoint" />
          </mxGeometry>
        </mxCell>
        <mxCell id="8arNH5vf3MiWIjYZIo-4-127" value="Rsync" style="edgeLabel;html=1;align=center;verticalAlign=middle;resizable=0;points=[];" parent="8arNH5vf3MiWIjYZIo-4-126" vertex="1" connectable="0">
          <mxGeometry x="-0.2487" y="-1" relative="1" as="geometry">
            <mxPoint x="28.23" y="-1.13" as="offset" />
          </mxGeometry>
        </mxCell>
        <mxCell id="8arNH5vf3MiWIjYZIo-4-128" value="" style="endArrow=classic;html=1;" parent="1" target="8arNH5vf3MiWIjYZIo-4-122" edge="1">
          <mxGeometry width="50" height="50" relative="1" as="geometry">
            <mxPoint x="1030" y="330" as="sourcePoint" />
            <mxPoint x="1010" y="450" as="targetPoint" />
          </mxGeometry>
        </mxCell>
        <mxCell id="8arNH5vf3MiWIjYZIo-4-136" value="主从复制" style="edgeLabel;html=1;align=center;verticalAlign=middle;resizable=0;points=[];" parent="8arNH5vf3MiWIjYZIo-4-128" vertex="1" connectable="0">
          <mxGeometry x="0.526" y="-1" relative="1" as="geometry">
            <mxPoint x="-9.55" y="22.89" as="offset" />
          </mxGeometry>
        </mxCell>
        <mxCell id="8arNH5vf3MiWIjYZIo-4-133" value="" style="endArrow=classic;html=1;exitX=0.85;exitY=0.95;exitDx=0;exitDy=0;exitPerimeter=0;entryX=0.15;entryY=0.05;entryDx=0;entryDy=0;entryPerimeter=0;" parent="1" source="8arNH5vf3MiWIjYZIo-4-7" target="8arNH5vf3MiWIjYZIo-4-121" edge="1">
          <mxGeometry width="50" height="50" relative="1" as="geometry">
            <mxPoint x="866.3999999999995" y="392.66" as="sourcePoint" />
            <mxPoint x="616.4" y="472.66" as="targetPoint" />
          </mxGeometry>
        </mxCell>
        <mxCell id="8arNH5vf3MiWIjYZIo-4-135" value="主从复制" style="edgeLabel;html=1;align=center;verticalAlign=middle;resizable=0;points=[];" parent="8arNH5vf3MiWIjYZIo-4-133" vertex="1" connectable="0">
          <mxGeometry x="0.5415" y="1" relative="1" as="geometry">
            <mxPoint x="41.58" y="24.33" as="offset" />
          </mxGeometry>
        </mxCell>
        <mxCell id="8arNH5vf3MiWIjYZIo-4-137" value="&lt;b&gt;&lt;font style=&quot;font-size: 14px&quot;&gt;券商中转机&lt;/font&gt;&lt;/b&gt;" style="text;html=1;strokeColor=none;fillColor=none;align=center;verticalAlign=middle;whiteSpace=wrap;rounded=0;dashed=1;" parent="1" vertex="1">
          <mxGeometry x="916.4" y="870" width="73.6" height="20" as="geometry" />
        </mxCell>
        <mxCell id="8arNH5vf3MiWIjYZIo-4-138" value="分发" style="shape=mxgraph.arrows.arrow_right;html=1;verticalLabelPosition=bottom;verticalAlign=top;strokeWidth=2;strokeColor=#000000;" parent="1" vertex="1">
          <mxGeometry x="1110" y="760" width="80" height="40" as="geometry" />
        </mxCell>
        <mxCell id="8arNH5vf3MiWIjYZIo-4-142" value="&lt;font style=&quot;font-size: 18px&quot;&gt;&lt;b&gt;。。。&lt;/b&gt;&lt;/font&gt;" style="text;html=1;align=center;verticalAlign=middle;resizable=0;points=[];autosize=1;" parent="1" vertex="1">
          <mxGeometry x="1200" y="770" width="70" height="20" as="geometry" />
        </mxCell>
        <mxCell id="8arNH5vf3MiWIjYZIo-4-143" style="edgeStyle=orthogonalEdgeStyle;rounded=0;orthogonalLoop=1;jettySize=auto;html=1;exitX=0.5;exitY=1;exitDx=0;exitDy=0;exitPerimeter=0;" parent="1" source="8arNH5vf3MiWIjYZIo-4-55" target="8arNH5vf3MiWIjYZIo-4-55" edge="1">
          <mxGeometry relative="1" as="geometry" />
        </mxCell>
        <mxCell id="8arNH5vf3MiWIjYZIo-4-144" value="" style="endArrow=classic;html=1;exitX=0.637;exitY=1.004;exitDx=0;exitDy=0;exitPerimeter=0;" parent="1" source="8arNH5vf3MiWIjYZIo-4-3" target="8arNH5vf3MiWIjYZIo-4-55" edge="1">
          <mxGeometry width="50" height="50" relative="1" as="geometry">
            <mxPoint x="140" y="480" as="sourcePoint" />
            <mxPoint x="190" y="430" as="targetPoint" />
          </mxGeometry>
        </mxCell>
        <mxCell id="8arNH5vf3MiWIjYZIo-4-145" value="" style="endArrow=classic;html=1;entryX=0.567;entryY=0.009;entryDx=0;entryDy=0;entryPerimeter=0;exitX=0.15;exitY=0.95;exitDx=0;exitDy=0;exitPerimeter=0;" parent="1" source="8arNH5vf3MiWIjYZIo-4-35" target="8arNH5vf3MiWIjYZIo-4-55" edge="1">
          <mxGeometry width="50" height="50" relative="1" as="geometry">
            <mxPoint x="150" y="460" as="sourcePoint" />
            <mxPoint x="100" y="510" as="targetPoint" />
          </mxGeometry>
        </mxCell>
        <mxCell id="8arNH5vf3MiWIjYZIo-4-146" value="" style="endArrow=classic;html=1;" parent="1" target="8arNH5vf3MiWIjYZIo-4-105" edge="1">
          <mxGeometry width="50" height="50" relative="1" as="geometry">
            <mxPoint x="295" y="550" as="sourcePoint" />
            <mxPoint x="100" y="630" as="targetPoint" />
          </mxGeometry>
        </mxCell>
        <mxCell id="8arNH5vf3MiWIjYZIo-4-147" value="" style="endArrow=classic;html=1;entryX=0.75;entryY=0;entryDx=0;entryDy=0;" parent="1" source="8arNH5vf3MiWIjYZIo-4-10" target="8arNH5vf3MiWIjYZIo-4-105" edge="1">
          <mxGeometry width="50" height="50" relative="1" as="geometry">
            <mxPoint x="520" y="530" as="sourcePoint" />
            <mxPoint x="470" y="580" as="targetPoint" />
          </mxGeometry>
        </mxCell>
        <mxCell id="8arNH5vf3MiWIjYZIo-4-148" value="&lt;font style=&quot;font-size: 24px&quot;&gt;&lt;b&gt;Engine / Reserach&lt;/b&gt;&lt;/font&gt;" style="html=1;outlineConnect=0;whiteSpace=wrap;fillColor=#99ffff;shape=mxgraph.archimate3.application;appType=proc;archiType=rounded;" parent="1" vertex="1">
          <mxGeometry x="10" y="1460" width="530" height="70" as="geometry" />
        </mxCell>
        <mxCell id="8arNH5vf3MiWIjYZIo-4-149" value="" style="endArrow=classic;html=1;" parent="1" target="8arNH5vf3MiWIjYZIo-4-113" edge="1">
          <mxGeometry width="50" height="50" relative="1" as="geometry">
            <mxPoint x="318" y="850" as="sourcePoint" />
            <mxPoint x="160" y="970" as="targetPoint" />
          </mxGeometry>
        </mxCell>
        <mxCell id="8arNH5vf3MiWIjYZIo-4-150" value="Rsync" style="edgeLabel;html=1;align=center;verticalAlign=middle;resizable=0;points=[];" parent="8arNH5vf3MiWIjYZIo-4-149" vertex="1" connectable="0">
          <mxGeometry x="0.1772" y="3" relative="1" as="geometry">
            <mxPoint x="0.37" y="-15.96" as="offset" />
          </mxGeometry>
        </mxCell>
        <mxCell id="8arNH5vf3MiWIjYZIo-4-151" value="" style="endArrow=classic;html=1;entryX=0.136;entryY=-0.009;entryDx=0;entryDy=0;entryPerimeter=0;" parent="1" target="8arNH5vf3MiWIjYZIo-4-159" edge="1">
          <mxGeometry width="50" height="50" relative="1" as="geometry">
            <mxPoint x="86" y="1210" as="sourcePoint" />
            <mxPoint x="-270" y="1290" as="targetPoint" />
          </mxGeometry>
        </mxCell>
        <mxCell id="8arNH5vf3MiWIjYZIo-4-152" value="" style="endArrow=classic;html=1;entryX=0.556;entryY=0.037;entryDx=0;entryDy=0;entryPerimeter=0;" parent="1" edge="1">
          <mxGeometry width="50" height="50" relative="1" as="geometry">
            <mxPoint x="319" y="1210" as="sourcePoint" />
            <mxPoint x="319.9000000000001" y="1351.85" as="targetPoint" />
          </mxGeometry>
        </mxCell>
        <mxCell id="8arNH5vf3MiWIjYZIo-4-153" value="" style="endArrow=classic;html=1;" parent="1" edge="1">
          <mxGeometry width="50" height="50" relative="1" as="geometry">
            <mxPoint x="469.29" y="1210" as="sourcePoint" />
            <mxPoint x="469.29" y="1350" as="targetPoint" />
          </mxGeometry>
        </mxCell>
        <mxCell id="8arNH5vf3MiWIjYZIo-4-155" value="" style="curved=1;endArrow=classic;html=1;entryX=1;entryY=0;entryDx=0;entryDy=0;entryPerimeter=0;exitX=0.8;exitY=1;exitDx=0;exitDy=0;exitPerimeter=0;" parent="1" source="8arNH5vf3MiWIjYZIo-4-10" target="8arNH5vf3MiWIjYZIo-4-159" edge="1">
          <mxGeometry width="50" height="50" relative="1" as="geometry">
            <mxPoint x="1200" y="410" as="sourcePoint" />
            <mxPoint x="1150" y="460" as="targetPoint" />
            <Array as="points">
              <mxPoint x="1100" y="430" />
              <mxPoint x="1090" y="830" />
              <mxPoint x="1080" y="1210" />
            </Array>
          </mxGeometry>
        </mxCell>
        <mxCell id="8arNH5vf3MiWIjYZIo-4-156" value="" style="curved=1;endArrow=classic;html=1;exitX=0.25;exitY=1;exitDx=0;exitDy=0;entryX=0;entryY=0;entryDx=0;entryDy=0;entryPerimeter=0;" parent="1" source="8arNH5vf3MiWIjYZIo-4-47" target="8arNH5vf3MiWIjYZIo-4-159" edge="1">
          <mxGeometry width="50" height="50" relative="1" as="geometry">
            <mxPoint x="-190" y="320" as="sourcePoint" />
            <mxPoint x="-150" y="1010" as="targetPoint" />
            <Array as="points">
              <mxPoint x="-70" y="570" />
              <mxPoint x="-90" y="730" />
              <mxPoint x="-90" y="830" />
              <mxPoint x="-70" y="1190" />
            </Array>
          </mxGeometry>
        </mxCell>
        <mxCell id="8arNH5vf3MiWIjYZIo-4-157" value="&lt;b&gt;JQData HTTP Server&lt;/b&gt;" style="aspect=fixed;pointerEvents=1;shadow=0;dashed=0;html=1;strokeColor=none;labelPosition=center;verticalLabelPosition=bottom;verticalAlign=top;align=center;fillColor=#00188D;shape=mxgraph.azure.server" parent="1" vertex="1">
          <mxGeometry x="1167" y="480" width="147" height="44.1" as="geometry" />
        </mxCell>
        <mxCell id="8arNH5vf3MiWIjYZIo-4-158" value="&lt;b&gt;JQData SDK Server&lt;/b&gt;" style="aspect=fixed;pointerEvents=1;shadow=0;dashed=0;html=1;strokeColor=none;labelPosition=center;verticalLabelPosition=bottom;verticalAlign=top;align=center;fillColor=#00188D;shape=mxgraph.azure.server" parent="1" vertex="1">
          <mxGeometry x="1400" y="480" width="147" height="44.1" as="geometry" />
        </mxCell>
        <mxCell id="8arNH5vf3MiWIjYZIo-4-159" value="" style="verticalLabelPosition=bottom;verticalAlign=top;html=1;shape=mxgraph.basic.patternFillRect;fillStyle=diagRev;step=5;fillStrokeWidth=0.2;fillStrokeColor=#dddddd;" parent="1" vertex="1">
          <mxGeometry x="15" y="1350" width="525" height="50" as="geometry" />
        </mxCell>
        <mxCell id="8arNH5vf3MiWIjYZIo-4-160" value="&lt;font style=&quot;font-size: 14px&quot;&gt;&lt;b&gt;jqdata&lt;/b&gt;&lt;/font&gt;" style="text;html=1;strokeColor=none;fillColor=none;align=center;verticalAlign=middle;whiteSpace=wrap;rounded=0;" parent="1" vertex="1">
          <mxGeometry x="250" y="1365" width="40" height="20" as="geometry" />
        </mxCell>
        <mxCell id="8arNH5vf3MiWIjYZIo-4-161" value="" style="shape=mxgraph.arrows.arrow_down;html=1;verticalLabelPosition=bottom;verticalAlign=top;strokeWidth=2;strokeColor=#000000;" parent="1" vertex="1">
          <mxGeometry x="252" y="1410" width="30" height="40" as="geometry" />
        </mxCell>
        <mxCell id="8arNH5vf3MiWIjYZIo-4-162" value="用户" style="aspect=fixed;perimeter=ellipsePerimeter;html=1;align=center;shadow=0;dashed=0;spacingTop=3;image;image=img/lib/active_directory/user_accounts.svg;" parent="1" vertex="1">
          <mxGeometry x="1260" y="1440" width="103.09" height="100" as="geometry" />
        </mxCell>
        <mxCell id="8arNH5vf3MiWIjYZIo-4-163" value="" style="curved=1;endArrow=classic;html=1;exitX=1;exitY=0.5;exitDx=0;exitDy=0;exitPerimeter=0;entryX=0.015;entryY=0.97;entryDx=0;entryDy=0;entryPerimeter=0;" parent="1" source="8arNH5vf3MiWIjYZIo-4-159" target="8arNH5vf3MiWIjYZIo-4-158" edge="1">
          <mxGeometry width="50" height="50" relative="1" as="geometry">
            <mxPoint x="1000" y="1350" as="sourcePoint" />
            <mxPoint x="1050" y="1300" as="targetPoint" />
            <Array as="points">
              <mxPoint x="1000" y="1300" />
              <mxPoint x="1350" y="910" />
            </Array>
          </mxGeometry>
        </mxCell>
        <mxCell id="8arNH5vf3MiWIjYZIo-4-164" value="run_query" style="endArrow=classic;html=1;entryX=0.015;entryY=0.03;entryDx=0;entryDy=0;entryPerimeter=0;" parent="1" source="8arNH5vf3MiWIjYZIo-4-10" target="8arNH5vf3MiWIjYZIo-4-158" edge="1">
          <mxGeometry width="50" height="50" relative="1" as="geometry">
            <mxPoint x="1180" y="370" as="sourcePoint" />
            <mxPoint x="1230" y="320" as="targetPoint" />
          </mxGeometry>
        </mxCell>
        <mxCell id="8arNH5vf3MiWIjYZIo-4-165" value="" style="endArrow=classic;html=1;exitX=1;exitY=0.75;exitDx=0;exitDy=0;" parent="1" source="8arNH5vf3MiWIjYZIo-4-36" edge="1">
          <mxGeometry width="50" height="50" relative="1" as="geometry">
            <mxPoint x="410" y="340" as="sourcePoint" />
            <mxPoint x="1170" y="505" as="targetPoint" />
            <Array as="points">
              <mxPoint x="840" y="500" />
            </Array>
          </mxGeometry>
        </mxCell>
        <mxCell id="8arNH5vf3MiWIjYZIo-4-166" value="读取当日行情" style="edgeLabel;html=1;align=center;verticalAlign=middle;resizable=0;points=[];" parent="8arNH5vf3MiWIjYZIo-4-165" vertex="1" connectable="0">
          <mxGeometry x="0.2819" y="-5" relative="1" as="geometry">
            <mxPoint x="40.629999999999995" y="-8.47" as="offset" />
          </mxGeometry>
        </mxCell>
        <mxCell id="8arNH5vf3MiWIjYZIo-4-167" value="" style="endArrow=classic;html=1;exitX=1;exitY=1;exitDx=0;exitDy=0;" parent="1" source="8arNH5vf3MiWIjYZIo-4-38" edge="1">
          <mxGeometry width="50" height="50" relative="1" as="geometry">
            <mxPoint x="590" y="480" as="sourcePoint" />
            <mxPoint x="1170" y="502" as="targetPoint" />
          </mxGeometry>
        </mxCell>
        <mxCell id="8arNH5vf3MiWIjYZIo-4-168" value="读取历史行情" style="edgeLabel;html=1;align=center;verticalAlign=middle;resizable=0;points=[];" parent="8arNH5vf3MiWIjYZIo-4-167" vertex="1" connectable="0">
          <mxGeometry x="-0.0619" y="1" relative="1" as="geometry">
            <mxPoint x="14.77" y="4.32" as="offset" />
          </mxGeometry>
        </mxCell>
        <mxCell id="8arNH5vf3MiWIjYZIo-4-173" value="" style="curved=1;endArrow=classic;html=1;entryX=0;entryY=0.5;entryDx=0;entryDy=0;exitX=0.5;exitY=0;exitDx=0;exitDy=0;entryPerimeter=0;strokeWidth=2;" parent="1" source="8arNH5vf3MiWIjYZIo-4-47" target="8arNH5vf3MiWIjYZIo-4-30" edge="1">
          <mxGeometry width="50" height="50" relative="1" as="geometry">
            <mxPoint x="60" y="90" as="sourcePoint" />
            <mxPoint x="110" y="40" as="targetPoint" />
            <Array as="points">
              <mxPoint x="100" y="50" />
              <mxPoint x="350" y="-100" />
            </Array>
          </mxGeometry>
        </mxCell>
        <mxCell id="8arNH5vf3MiWIjYZIo-4-175" value="盘后导出 Tick &lt;br&gt;数据到 CSV" style="edgeLabel;html=1;align=center;verticalAlign=middle;resizable=0;points=[];" parent="8arNH5vf3MiWIjYZIo-4-173" vertex="1" connectable="0">
          <mxGeometry x="0.4484" y="-1" relative="1" as="geometry">
            <mxPoint x="203.91000000000003" y="2.6399999999999997" as="offset" />
          </mxGeometry>
        </mxCell>
        <mxCell id="8arNH5vf3MiWIjYZIo-4-174" value="" style="curved=1;endArrow=classic;html=1;exitX=0.667;exitY=0;exitDx=0;exitDy=0;exitPerimeter=0;entryX=0.5;entryY=1;entryDx=0;entryDy=0;entryPerimeter=0;" parent="1" source="8arNH5vf3MiWIjYZIo-4-177" target="8arNH5vf3MiWIjYZIo-4-236" edge="1">
          <mxGeometry width="50" height="50" relative="1" as="geometry">
            <mxPoint x="320" y="90" as="sourcePoint" />
            <mxPoint x="490" y="20" as="targetPoint" />
            <Array as="points">
              <mxPoint x="460" y="30" />
            </Array>
          </mxGeometry>
        </mxCell>
        <mxCell id="8arNH5vf3MiWIjYZIo-4-176" value="盘后读取天数据写入历史库&lt;br&gt;（仅部分品种）" style="edgeLabel;html=1;align=center;verticalAlign=middle;resizable=0;points=[];" parent="8arNH5vf3MiWIjYZIo-4-174" vertex="1" connectable="0">
          <mxGeometry x="0.2518" y="-23" relative="1" as="geometry">
            <mxPoint x="80.37" y="-55.669999999999995" as="offset" />
          </mxGeometry>
        </mxCell>
        <mxCell id="8arNH5vf3MiWIjYZIo-4-178" value="" style="endArrow=classic;html=1;entryX=0.5;entryY=0;entryDx=0;entryDy=0;" parent="1" target="8arNH5vf3MiWIjYZIo-4-177" edge="1">
          <mxGeometry width="50" height="50" relative="1" as="geometry">
            <mxPoint x="296" y="-161" as="sourcePoint" />
            <mxPoint x="-40" y="10" as="targetPoint" />
          </mxGeometry>
        </mxCell>
        <mxCell id="8arNH5vf3MiWIjYZIo-4-180" value="jqddata&lt;br&gt;server05" style="edgeLabel;html=1;align=center;verticalAlign=middle;resizable=0;points=[];" parent="8arNH5vf3MiWIjYZIo-4-178" vertex="1" connectable="0">
          <mxGeometry x="0.1561" y="-1" relative="1" as="geometry">
            <mxPoint x="-0.33999999999999986" y="-1.5599999999999996" as="offset" />
          </mxGeometry>
        </mxCell>
        <mxCell id="8arNH5vf3MiWIjYZIo-4-181" value="&lt;b&gt;prefill /&amp;nbsp;fix_paused&lt;/b&gt;" style="html=1;outlineConnect=0;whiteSpace=wrap;fillColor=#99ffff;shape=mxgraph.archimate3.application;appType=proc;archiType=rounded;" parent="1" vertex="1">
          <mxGeometry x="450" y="-240" width="150" height="40" as="geometry" />
        </mxCell>
        <mxCell id="8arNH5vf3MiWIjYZIo-4-183" value="" style="curved=1;endArrow=classic;html=1;exitX=0.5;exitY=1;exitDx=0;exitDy=0;exitPerimeter=0;" parent="1" source="8arNH5vf3MiWIjYZIo-4-181" edge="1">
          <mxGeometry width="50" height="50" relative="1" as="geometry">
            <mxPoint x="240" y="-60" as="sourcePoint" />
            <mxPoint x="270" y="160" as="targetPoint" />
            <Array as="points">
              <mxPoint x="270" y="-110" />
              <mxPoint x="200" y="-10" />
            </Array>
          </mxGeometry>
        </mxCell>
        <mxCell id="8arNH5vf3MiWIjYZIo-4-184" value="盘前填充 / 盘后修复天行情" style="edgeLabel;html=1;align=center;verticalAlign=middle;resizable=0;points=[];" parent="8arNH5vf3MiWIjYZIo-4-183" vertex="1" connectable="0">
          <mxGeometry x="-0.6536" y="1" relative="1" as="geometry">
            <mxPoint x="30.25" y="-10.85" as="offset" />
          </mxGeometry>
        </mxCell>
        <mxCell id="8arNH5vf3MiWIjYZIo-4-186" value="" style="endArrow=classic;html=1;entryX=0;entryY=1;entryDx=2.9;entryDy=-2.9;entryPerimeter=0;exitX=0.5;exitY=0;exitDx=0;exitDy=0;" parent="1" source="8arNH5vf3MiWIjYZIo-4-15" target="8arNH5vf3MiWIjYZIo-4-24" edge="1">
          <mxGeometry width="50" height="50" relative="1" as="geometry">
            <mxPoint x="-220" y="460" as="sourcePoint" />
            <mxPoint x="-180" y="400" as="targetPoint" />
          </mxGeometry>
        </mxCell>
        <mxCell id="8arNH5vf3MiWIjYZIo-4-187" value="jtpmarket" style="edgeLabel;html=1;align=center;verticalAlign=middle;resizable=0;points=[];" parent="8arNH5vf3MiWIjYZIo-4-186" vertex="1" connectable="0">
          <mxGeometry x="0.2424" y="1" relative="1" as="geometry">
            <mxPoint y="-15.57" as="offset" />
          </mxGeometry>
        </mxCell>
        <mxCell id="8arNH5vf3MiWIjYZIo-4-188" value="" style="endArrow=classic;html=1;entryX=0;entryY=0;entryDx=2.9;entryDy=2.9;entryPerimeter=0;" parent="1" target="8arNH5vf3MiWIjYZIo-4-17" edge="1">
          <mxGeometry width="50" height="50" relative="1" as="geometry">
            <mxPoint x="-130" y="540" as="sourcePoint" />
            <mxPoint x="-100" y="590" as="targetPoint" />
          </mxGeometry>
        </mxCell>
        <mxCell id="8arNH5vf3MiWIjYZIo-4-189" value="" style="curved=1;endArrow=classic;html=1;entryX=0;entryY=0;entryDx=2.9;entryDy=2.9;entryPerimeter=0;" parent="1" target="8arNH5vf3MiWIjYZIo-4-95" edge="1">
          <mxGeometry width="50" height="50" relative="1" as="geometry">
            <mxPoint x="-170" y="580" as="sourcePoint" />
            <mxPoint x="-260" y="860" as="targetPoint" />
            <Array as="points">
              <mxPoint x="-130" y="860" />
            </Array>
          </mxGeometry>
        </mxCell>
        <mxCell id="8arNH5vf3MiWIjYZIo-4-192" value="jtpmarket" style="edgeLabel;html=1;align=center;verticalAlign=middle;resizable=0;points=[];" parent="8arNH5vf3MiWIjYZIo-4-189" vertex="1" connectable="0">
          <mxGeometry x="0.71" y="1" relative="1" as="geometry">
            <mxPoint as="offset" />
          </mxGeometry>
        </mxCell>
        <mxCell id="8arNH5vf3MiWIjYZIo-4-197" value="&lt;b&gt;&lt;font style=&quot;font-size: 24px&quot;&gt;数据抓取&lt;/font&gt;&lt;/b&gt;" style="text;html=1;strokeColor=none;fillColor=none;align=center;verticalAlign=middle;whiteSpace=wrap;rounded=0;dashed=1;" parent="1" vertex="1">
          <mxGeometry x="-270" y="-155" width="180" height="20" as="geometry" />
        </mxCell>
        <mxCell id="8arNH5vf3MiWIjYZIo-4-198" value="&lt;b&gt;&lt;font style=&quot;font-size: 24px&quot;&gt;存储系统&lt;/font&gt;&lt;/b&gt;" style="text;html=1;strokeColor=none;fillColor=none;align=center;verticalAlign=middle;whiteSpace=wrap;rounded=0;dashed=1;" parent="1" vertex="1">
          <mxGeometry x="-250" y="210" width="140" height="20" as="geometry" />
        </mxCell>
        <mxCell id="8arNH5vf3MiWIjYZIo-4-199" value="&lt;b&gt;&lt;font style=&quot;font-size: 24px&quot;&gt;中继服务&lt;/font&gt;&lt;/b&gt;" style="text;html=1;strokeColor=none;fillColor=none;align=center;verticalAlign=middle;whiteSpace=wrap;rounded=0;dashed=1;" parent="1" vertex="1">
          <mxGeometry x="-250" y="785" width="140" height="20" as="geometry" />
        </mxCell>
        <mxCell id="8arNH5vf3MiWIjYZIo-4-201" value="&lt;b&gt;&lt;font style=&quot;font-size: 24px&quot;&gt;Services&lt;/font&gt;&lt;/b&gt;" style="text;html=1;strokeColor=none;fillColor=none;align=center;verticalAlign=middle;whiteSpace=wrap;rounded=0;dashed=1;" parent="1" vertex="1">
          <mxGeometry x="50" y="510" width="140" height="20" as="geometry" />
        </mxCell>
        <mxCell id="8arNH5vf3MiWIjYZIo-4-202" value="&lt;b&gt;&lt;font style=&quot;font-size: 24px&quot;&gt;引擎&lt;/font&gt;&lt;/b&gt;" style="text;html=1;strokeColor=none;fillColor=none;align=center;verticalAlign=middle;whiteSpace=wrap;rounded=0;dashed=1;" parent="1" vertex="1">
          <mxGeometry x="-250" y="1285" width="89" height="20" as="geometry" />
        </mxCell>
        <mxCell id="8arNH5vf3MiWIjYZIo-4-204" value="" style="curved=1;endArrow=classic;html=1;dashed=1;dashPattern=1 4;" parent="1" source="8arNH5vf3MiWIjYZIo-4-13" target="8arNH5vf3MiWIjYZIo-4-115" edge="1">
          <mxGeometry width="50" height="50" relative="1" as="geometry">
            <mxPoint x="770" y="370" as="sourcePoint" />
            <mxPoint x="720" y="420" as="targetPoint" />
            <Array as="points">
              <mxPoint x="750" y="360" />
              <mxPoint x="760" y="700" />
              <mxPoint x="770" y="1050" />
            </Array>
          </mxGeometry>
        </mxCell>
        <mxCell id="8arNH5vf3MiWIjYZIo-4-205" value="Remote Mount" style="edgeLabel;html=1;align=center;verticalAlign=middle;resizable=0;points=[];" parent="8arNH5vf3MiWIjYZIo-4-204" vertex="1" connectable="0">
          <mxGeometry x="0.2098" y="-59" relative="1" as="geometry">
            <mxPoint x="32.849999999999994" y="73.95" as="offset" />
          </mxGeometry>
        </mxCell>
        <mxCell id="8arNH5vf3MiWIjYZIo-4-206" value="" style="endArrow=classic;html=1;entryX=0.015;entryY=0.03;entryDx=0;entryDy=0;entryPerimeter=0;exitX=0.954;exitY=0.936;exitDx=0;exitDy=0;exitPerimeter=0;" parent="1" source="8arNH5vf3MiWIjYZIo-4-10" target="8arNH5vf3MiWIjYZIo-4-157" edge="1">
          <mxGeometry width="50" height="50" relative="1" as="geometry">
            <mxPoint x="1140" y="430" as="sourcePoint" />
            <mxPoint x="1190" y="380" as="targetPoint" />
          </mxGeometry>
        </mxCell>
        <mxCell id="8arNH5vf3MiWIjYZIo-4-229" style="edgeStyle=orthogonalEdgeStyle;rounded=1;orthogonalLoop=1;jettySize=auto;html=1;entryX=1;entryY=0.5;entryDx=0;entryDy=0;entryPerimeter=0;" parent="1" source="8arNH5vf3MiWIjYZIo-4-11" target="8arNH5vf3MiWIjYZIo-4-228" edge="1">
          <mxGeometry relative="1" as="geometry" />
        </mxCell>
        <mxCell id="8arNH5vf3MiWIjYZIo-4-234" value="获取期权日行情" style="edgeLabel;html=1;align=center;verticalAlign=middle;resizable=0;points=[];" parent="8arNH5vf3MiWIjYZIo-4-229" vertex="1" connectable="0">
          <mxGeometry x="0.1631" y="2" relative="1" as="geometry">
            <mxPoint x="1" as="offset" />
          </mxGeometry>
        </mxCell>
        <mxCell id="8arNH5vf3MiWIjYZIo-4-11" value="聚源数据" style="outlineConnect=0;dashed=0;verticalLabelPosition=bottom;verticalAlign=top;align=center;html=1;shape=mxgraph.aws3.mysql_db_instance;fillColor=#2E73B8;gradientColor=none;" parent="1" vertex="1">
          <mxGeometry x="1314" y="-252.25" width="60" height="64.5" as="geometry" />
        </mxCell>
        <mxCell id="8arNH5vf3MiWIjYZIo-4-230" value="获取债券数据" style="edgeStyle=orthogonalEdgeStyle;rounded=1;orthogonalLoop=1;jettySize=auto;html=1;exitX=0;exitY=0.5;exitDx=0;exitDy=0;exitPerimeter=0;entryX=1;entryY=0.5;entryDx=0;entryDy=0;entryPerimeter=0;" parent="1" source="8arNH5vf3MiWIjYZIo-4-222" target="8arNH5vf3MiWIjYZIo-4-227" edge="1">
          <mxGeometry x="-0.2308" relative="1" as="geometry">
            <Array as="points">
              <mxPoint x="1270" y="-72" />
              <mxPoint x="1270" y="-72" />
            </Array>
            <mxPoint as="offset" />
          </mxGeometry>
        </mxCell>
        <mxCell id="8arNH5vf3MiWIjYZIo-4-222" value="巨潮数据" style="outlineConnect=0;dashed=0;verticalLabelPosition=bottom;verticalAlign=top;align=center;html=1;shape=mxgraph.aws3.mysql_db_instance;fillColor=#2E73B8;gradientColor=none;" parent="1" vertex="1">
          <mxGeometry x="1320" y="-104.5" width="60" height="64.5" as="geometry" />
        </mxCell>
        <mxCell id="8arNH5vf3MiWIjYZIo-4-227" value="&lt;b&gt;crawl_data&lt;/b&gt;" style="html=1;outlineConnect=0;whiteSpace=wrap;fillColor=#99ffff;shape=mxgraph.archimate3.application;appType=proc;archiType=rounded;" parent="1" vertex="1">
          <mxGeometry x="1060" y="-92.25" width="130" height="40" as="geometry" />
        </mxCell>
        <mxCell id="8arNH5vf3MiWIjYZIo-4-228" value="&lt;b&gt;crawl_data&lt;/b&gt;" style="html=1;outlineConnect=0;whiteSpace=wrap;fillColor=#99ffff;shape=mxgraph.archimate3.application;appType=proc;archiType=rounded;" parent="1" vertex="1">
          <mxGeometry x="924.6" y="-240" width="130" height="40" as="geometry" />
        </mxCell>
        <mxCell id="8arNH5vf3MiWIjYZIo-4-233" value="写入债券日行情" style="curved=1;endArrow=classic;html=1;exitX=0.5;exitY=1;exitDx=0;exitDy=0;exitPerimeter=0;entryX=0.634;entryY=0.01;entryDx=0;entryDy=0;entryPerimeter=0;" parent="1" source="8arNH5vf3MiWIjYZIo-4-227" target="8arNH5vf3MiWIjYZIo-4-10" edge="1">
          <mxGeometry x="-0.2079" y="-6" width="50" height="50" relative="1" as="geometry">
            <mxPoint x="1160" y="20" as="sourcePoint" />
            <mxPoint x="1110" y="70" as="targetPoint" />
            <Array as="points">
              <mxPoint x="1110" y="20" />
              <mxPoint x="1100" y="90" />
            </Array>
            <mxPoint y="1" as="offset" />
          </mxGeometry>
        </mxCell>
        <mxCell id="8arNH5vf3MiWIjYZIo-4-236" value="&lt;b&gt;crawl_data&lt;/b&gt;" style="html=1;outlineConnect=0;whiteSpace=wrap;fillColor=#99ffff;shape=mxgraph.archimate3.application;appType=proc;archiType=rounded;" parent="1" vertex="1">
          <mxGeometry x="535" y="-110" width="130" height="40" as="geometry" />
        </mxCell>
        <mxCell id="8arNH5vf3MiWIjYZIo-4-238" value="" style="endArrow=classic;html=1;exitX=0.5;exitY=1;exitDx=0;exitDy=0;exitPerimeter=0;" parent="1" source="8arNH5vf3MiWIjYZIo-4-236" edge="1">
          <mxGeometry width="50" height="50" relative="1" as="geometry">
            <mxPoint x="630" y="10" as="sourcePoint" />
            <mxPoint x="600" y="132" as="targetPoint" />
          </mxGeometry>
        </mxCell>
        <mxCell id="8arNH5vf3MiWIjYZIo-4-240" value="" style="endArrow=classic;html=1;exitX=1;exitY=0.75;exitDx=0;exitDy=0;exitPerimeter=0;" parent="1" source="8arNH5vf3MiWIjYZIo-4-30" target="8arNH5vf3MiWIjYZIo-4-10" edge="1">
          <mxGeometry width="50" height="50" relative="1" as="geometry">
            <mxPoint x="830" y="-210" as="sourcePoint" />
            <mxPoint x="940" y="80" as="targetPoint" />
          </mxGeometry>
        </mxCell>
        <mxCell id="8arNH5vf3MiWIjYZIo-4-241" value="盘前&amp;nbsp; 9:25&lt;br&gt;写入集合竞价" style="edgeLabel;html=1;align=center;verticalAlign=middle;resizable=0;points=[];" parent="8arNH5vf3MiWIjYZIo-4-240" vertex="1" connectable="0">
          <mxGeometry x="0.2623" y="-1" relative="1" as="geometry">
            <mxPoint x="5" y="8" as="offset" />
          </mxGeometry>
        </mxCell>
        <mxCell id="c_6047Yb3-eXkrgklyP9-3" value="&lt;b&gt;注：&lt;/b&gt;除实时行情外，服务 tr-data00 完全，主要为券商提供历史数据" style="text;html=1;strokeColor=none;fillColor=none;align=center;verticalAlign=middle;whiteSpace=wrap;rounded=0;" vertex="1" parent="1">
          <mxGeometry x="547.5" y="685" width="195" height="20" as="geometry" />
        </mxCell>
        <mxCell id="c_6047Yb3-eXkrgklyP9-6" value="&lt;b&gt;注：&lt;/b&gt;主要更新实时行情和历史行情数据，以及非行情数据，平台自用" style="text;html=1;strokeColor=none;fillColor=none;align=center;verticalAlign=middle;whiteSpace=wrap;rounded=0;" vertex="1" parent="1">
          <mxGeometry x="-40" y="805" width="190" height="20" as="geometry" />
        </mxCell>
        <mxCell id="c_6047Yb3-eXkrgklyP9-10" value="" style="curved=1;endArrow=classic;html=1;exitX=1;exitY=0.5;exitDx=0;exitDy=0;exitPerimeter=0;entryX=0.75;entryY=0;entryDx=0;entryDy=0;" edge="1" parent="1" source="8arNH5vf3MiWIjYZIo-4-158" target="8arNH5vf3MiWIjYZIo-4-162">
          <mxGeometry width="50" height="50" relative="1" as="geometry">
            <mxPoint x="1390" y="940" as="sourcePoint" />
            <mxPoint x="2280" y="1200" as="targetPoint" />
            <Array as="points">
              <mxPoint x="1590" y="960" />
            </Array>
          </mxGeometry>
        </mxCell>
        <mxCell id="c_6047Yb3-eXkrgklyP9-11" value="" style="curved=1;endArrow=classic;html=1;exitX=1;exitY=0.5;exitDx=0;exitDy=0;exitPerimeter=0;entryX=0.75;entryY=0;entryDx=0;entryDy=0;" edge="1" parent="1" source="8arNH5vf3MiWIjYZIo-4-157" target="8arNH5vf3MiWIjYZIo-4-162">
          <mxGeometry width="50" height="50" relative="1" as="geometry">
            <mxPoint x="1387" y="1010" as="sourcePoint" />
            <mxPoint x="1167" y="1150" as="targetPoint" />
            <Array as="points">
              <mxPoint x="1350" y="600" />
              <mxPoint x="1387" y="1060" />
            </Array>
          </mxGeometry>
        </mxCell>
        <mxCell id="c_6047Yb3-eXkrgklyP9-14" value="" style="curved=1;endArrow=classic;html=1;exitX=1;exitY=0.5;exitDx=0;exitDy=0;exitPerimeter=0;" edge="1" parent="1" source="8arNH5vf3MiWIjYZIo-4-148">
          <mxGeometry width="50" height="50" relative="1" as="geometry">
            <mxPoint x="680" y="1570" as="sourcePoint" />
            <mxPoint x="1270" y="1495" as="targetPoint" />
            <Array as="points" />
          </mxGeometry>
        </mxCell>
      </root>
    </mxGraphModel>
  </diagram>
</mxfile>
